Coordinates
version=1
nRows=39
nColumns=38
inDegrees=no

Units are S.I. units (second, meters, Newtons, ...)
If the header above contains a line with 'inDegrees', this indicates whether rotational values are in degrees (yes) or radians (no).

endheader
time	pelvis_tilt	pelvis_list	pelvis_rotation	pelvis_tx	pelvis_ty	pelvis_tz	hip_flexion_r	hip_adduction_r	hip_rotation_r	knee_angle_r	ankle_angle_r	subtalar_angle_r	mtp_angle_r	hip_flexion_l	hip_adduction_l	hip_rotation_l	knee_angle_l	ankle_angle_l	subtalar_angle_l	mtp_angle_l	lumbar_extension	lumbar_bending	lumbar_rotation	arm_flex_r	arm_add_r	arm_rot_r	elbow_flex_r	pro_sup_r	wrist_flex_r	wrist_dev_r	arm_flex_l	arm_add_l	arm_rot_l	elbow_flex_l	pro_sup_l	wrist_flex_l	wrist_dev_l
20	1.16475	0.900305	1.1846	0.723594	-0.377178	0.660072	1.587	-0.105993	-0.253538	1.47086	-0.150578	0	0	1.58486	-0.433276	0.360218	1.69766	0.104163	0	0	-1.03578	0.0195379	0.034774	1.53317	-0.478591	0.891537	1.12542	0.983172	0	0	1.5708	-0.394752	0.732689	0.830635	1.57001	0	0
20.01	1.17421	0.901295	1.1788	0.723426	-0.378995	0.661003	1.58694	-0.0869256	-0.22384	1.46601	-0.148277	0	0	1.58136	-0.426484	0.3666	1.69318	0.105775	0	0	-1.03539	0.0271689	0.038624	1.49148	-0.458609	0.808367	1.12858	0.984999	0	0	1.5708	-0.411994	0.762813	0.841551	1.5686	0	0
20.02	1.18106	0.890624	1.16889	0.724177	-0.380017	0.663572	1.58616	-0.102633	-0.268897	1.45042	-0.170479	0	0	1.58798	-0.432223	0.370565	1.67894	0.106121	0	0	-1.0272	0.0211188	0.0487202	1.45698	-0.451637	0.733352	1.14042	1.07355	0	0	1.5708	-0.404046	0.755989	0.837451	1.56886	0	0
20.03	1.18208	0.884347	1.16867	0.725006	-0.381588	0.664952	1.59244	-0.0751785	-0.227745	1.43767	-0.159299	0	0	1.59227	-0.431295	0.37101	1.67002	0.106594	0	0	-1.01918	0.0174368	0.0497926	1.4478	-0.458687	0.716589	1.15446	1.08501	0	0	1.5708	-0.399764	0.751348	0.83345	1.56908	0	0
20.04	1.1893	0.884211	1.16626	0.724941	-0.382928	0.666673	1.5883	-0.0753689	-0.22876	1.43197	-0.161606	0	0	1.58913	-0.429235	0.37106	1.66244	0.107897	0	0	-1.01796	0.0167916	0.0509517	1.44135	-0.469368	0.706954	1.1694	1.07354	0	0	1.5708	-0.395107	0.74992	0.828651	1.56903	0	0
20.05	1.20975	0.891715	1.16342	0.723524	-0.383525	0.668683	1.51309	-0.152222	-0.317365	1.40964	-0.126168	0	0	1.57698	-0.42214	0.372171	1.65608	0.112222	0	0	-1.00841	0.0201852	0.00940014	1.28129	0.131152	-0.30303	1.00332	1.5708	0	0	1.5708	-0.425809	0.77683	0.810365	1.56932	0	0
20.06	1.19227	0.878582	1.17441	0.725326	-0.385449	0.669511	1.58931	-0.0806972	-0.229502	1.42258	-0.162923	0	0	1.58918	-0.421035	0.364964	1.64502	0.110198	0	0	-0.999677	0.0102262	0.0308929	1.30568	0.296068	-0.63351	1.1048	1.5708	0	0	1.5708	-0.396022	0.757209	0.812382	1.56927	0	0
20.07	1.20003	0.885819	1.18	0.724279	-0.386943	0.670222	1.58147	-0.089587	-0.22609	1.4287	-0.161323	0	0	1.58054	-0.411645	0.361148	1.64326	0.111563	0	0	-1.00079	0.0148119	0.0243657	1.3033	0.303385	-0.64936	1.11335	1.5708	0	0	1.5708	-0.393795	0.772545	0.805208	1.56902	0	0
20.08	1.20681	0.890157	1.18469	0.723817	-0.387458	0.670986	1.52922	-0.131351	-0.259127	1.39972	-0.145069	0	0	1.56803	-0.399772	0.365889	1.63763	0.113828	0	0	-0.999601	0.0171928	0.0216321	1.29797	0.307177	-0.663678	1.12463	1.5708	0	0	1.5708	-0.389168	0.790361	0.798814	1.56862	0	0
20.09	1.2224	0.895475	1.16386	0.723673	-0.390308	0.674703	1.55718	-0.0956416	-0.242779	1.41185	-0.171683	0	0	1.56088	-0.413083	0.361104	1.62632	0.110761	0	0	-1.01824	0.0174362	0.0609098	1.43039	0.412412	-0.809181	1.14538	1.4689	0	0	1.5708	-0.356962	0.778723	0.796681	1.56764	0	0
20.1	1.24456	0.891691	1.15446	0.723319	-0.391532	0.673627	1.55439	-0.113625	-0.270479	1.42642	-0.173471	0	0	1.56928	-0.41423	0.373313	1.63635	0.113097	0	0	-1.02488	0.0343079	0.0956995	1.41384	0.364842	-0.765418	1.17497	1.46259	0	0	1.5708	-0.342425	0.792874	0.811325	1.56406	0	0
20.11	1.23897	0.891772	1.16339	0.723414	-0.392271	0.677552	1.48653	-0.148984	-0.299389	1.36264	-0.155878	0	0	1.55789	-0.408635	0.360994	1.60871	0.111567	0	0	-1.00358	0.0151937	0.0499537	1.31055	0.344388	-0.754613	1.17875	1.5708	0	0	1.5708	-0.354616	0.811239	0.781804	1.56733	0	0
20.12	1.24061	0.892761	1.16616	0.722824	-0.394225	0.680125	1.5404	-0.122308	-0.283077	1.39339	-0.168451	0	0	1.55232	-0.404436	0.355838	1.59511	0.109841	0	0	-0.997137	0.0110119	0.0475963	1.30617	0.34072	-0.757094	1.17283	1.5708	0	0	1.5708	-0.346314	0.834609	0.768359	1.56656	0	0
20.13	1.25287	0.881635	1.16413	0.724338	-0.395372	0.678848	1.50655	-0.165883	-0.297338	1.3824	-0.169961	0	0	1.57087	-0.406435	0.367085	1.60361	0.110756	0	0	-0.975689	0.0161525	0.0449804	1.37728	0.383572	-0.800684	1.12424	1.55627	0	0	1.5708	-0.351098	0.866718	0.760675	1.5631	0	0
20.14	1.26398	0.909843	1.15881	0.722962	-0.398083	0.684628	1.51434	-0.145808	-0.310025	1.39141	-0.18377	0	0	1.53017	-0.399535	0.351341	1.58176	0.107875	0	0	-1.00516	0.0153319	0.0499825	1.4119	0.388974	-0.844832	1.11979	1.54092	0	0	1.5708	-0.333028	0.865887	0.751687	1.56473	0	0
20.15	1.27838	0.927531	1.15233	0.72266	-0.399771	0.688549	1.49044	-0.14932	-0.311576	1.38502	-0.208374	0	0	1.50484	-0.399231	0.344075	1.56999	0.105515	0	0	-1.02606	0.0102094	0.053474	1.43494	0.401175	-0.899496	1.12483	1.46279	0	0	1.5708	-0.314949	0.846697	0.749622	1.56494	0	0
20.16	1.2898	0.93444	1.14942	0.723139	-0.4019	0.691511	1.47932	-0.152233	-0.312826	1.37959	-0.210049	0	0	1.49617	-0.395955	0.342	1.56092	0.105018	0	0	-1.02869	0.0107222	0.0471686	1.4351	0.39678	-0.908748	1.10368	1.45208	0	0	1.5708	-0.314875	0.854616	0.745814	1.56472	0	0
20.17	1.30676	0.943138	1.14268	0.72422	-0.403985	0.694852	1.4635	-0.153551	-0.314207	1.37459	-0.212552	0	0	1.4866	-0.395383	0.341168	1.55154	0.103039	0	0	-1.0286	0.00440234	0.0310501	1.48873	0.372931	-0.95706	1.08722	1.44103	0	0	1.5708	-0.3138	0.854332	0.734697	1.56542	0	0
20.18	1.32285	0.959242	1.13615	0.723773	-0.40578	0.699312	1.43986	-0.157894	-0.316105	1.36649	-0.218425	0	0	1.46473	-0.392611	0.336001	1.54007	0.0969939	0	0	-1.04691	0.00162385	0.0323419	1.51898	0.363814	-1.02512	1.02038	1.39958	0	0	1.5708	-0.300074	0.839108	0.735364	1.56568	0	0
20.19	1.33205	0.966884	1.13628	0.724036	-0.407838	0.70283	1.42693	-0.161775	-0.31707	1.35872	-0.220864	0	0	1.45366	-0.387769	0.33212	1.52887	0.0920263	0	0	-1.05468	-0.0007807	0.0323572	1.53092	0.351191	-1.04041	0.983202	1.37377	0	0	1.5708	-0.289232	0.832235	0.738073	1.5658	0	0
20.2	1.33427	0.972006	1.14176	0.724167	-0.41009	0.706077	1.41919	-0.166559	-0.317338	1.34981	-0.221754	0	0	1.44411	-0.380458	0.326602	1.5173	0.090064	0	0	-1.06141	0.00183587	0.0352249	1.46761	0.387184	-1.00831	1.04399	1.37649	0	0	1.5708	-0.285478	0.839439	0.747257	1.56547	0	0
20.21	1.3399	0.976615	1.14537	0.724558	-0.412074	0.709429	1.41027	-0.170304	-0.316861	1.34194	-0.223272	0	0	1.4363	-0.375046	0.322009	1.50506	0.0866574	0	0	-1.0658	-0.000881715	0.035523	1.46285	0.380836	-1.01483	1.04536	1.37616	0	0	1.5708	-0.275509	0.837869	0.753142	1.56609	0	0
20.22	1.34957	0.981112	1.1464	0.725232	-0.413883	0.712789	1.40041	-0.17329	-0.316484	1.33591	-0.225147	0	0	1.43072	-0.371062	0.319267	1.49425	0.0825744	0	0	-1.06687	-0.00797935	0.0319347	1.53775	0.323103	-1.04813	1.0089	1.37619	0	0	1.5708	-0.261605	0.831874	0.753262	1.56748	0	0
20.23	1.35874	0.989614	1.14722	0.725488	-0.416001	0.716639	1.38548	-0.178079	-0.321477	1.32471	-0.227495	0	0	1.41838	-0.365744	0.313976	1.48251	0.0782565	0	0	-1.07611	-0.0103706	0.0347625	1.5514	0.300979	-1.05507	0.970567	1.3766	0	0	1.5708	-0.247842	0.827404	0.75789	1.56837	0	0
20.24	1.36623	0.997032	1.1489	0.726013	-0.418226	0.720442	1.37497	-0.180449	-0.315243	1.31991	-0.229926	0	0	1.40717	-0.360302	0.309248	1.47033	0.0739137	0	0	-1.08408	-0.0133182	0.0369144	1.55955	0.28206	-1.05859	0.932689	1.37737	0	0	1.5708	-0.236044	0.822694	0.764676	1.5694	0	0
20.25	1.2427	1.00128	1.27565	0.729757	-0.42656	0.713584	1.37043	-0.330627	-0.506017	1.324	-0.228327	0	0	1.41083	-0.295745	0.267872	1.48019	0.0777037	0	0	-1.05163	-0.0409908	-0.0209591	1.55803	0.24345	-1.02217	0.760798	1.36414	0	0	1.5708	-0.216104	0.825764	0.764005	1.5708	0	0
20.26	1.2481	1.00857	1.27974	0.730079	-0.429076	0.717922	1.40402	-0.326458	-0.503549	1.34266	-0.246221	0	0	1.40114	-0.288741	0.262356	1.47029	0.0760183	0	0	-1.05975	-0.0418062	-0.024915	1.56639	0.180537	-1.03747	0.736143	1.37147	0	0	1.5708	-0.215717	0.823183	0.778076	1.5708	0	0
20.27	1.39318	1.02346	1.16244	0.727598	-0.426168	0.733493	1.33367	-0.214564	-0.347727	1.30314	-0.250964	0	0	1.3714	-0.330471	0.294712	1.43058	0.0635085	0	0	-1.10552	-0.00815696	0.0111289	1.50994	0.283377	-0.966921	0.823757	1.3912	0	0	1.5708	-0.237731	0.82059	0.787434	1.5708	0	0
20.28	1.40548	1.03214	1.15214	0.727798	-0.427264	0.737164	1.31573	-0.19892	-0.32394	1.28262	-0.249836	0	0	1.35566	-0.336484	0.289925	1.41907	0.0553029	0	0	-1.12413	-0.0187156	0.0437926	1.56731	0.214017	-0.985944	0.792516	1.39155	0	0	1.5708	-0.207285	0.815199	0.810866	1.5708	0	0
20.29	1.42573	1.04962	1.14295	0.729848	-0.430055	0.745199	1.29095	-0.1957	-0.321758	1.26601	-0.250013	0	0	1.33546	-0.332452	0.283904	1.40291	0.0480512	0	0	-1.15034	-0.0244462	0.0229438	1.52355	0.266238	-0.924289	0.844574	1.40805	0	0	1.5708	-0.217116	0.814742	0.808638	1.5708	0	0
20.3	1.43732	1.06131	1.14045	0.729574	-0.431747	0.748971	1.27229	-0.198771	-0.32083	1.25807	-0.250074	0	0	1.31759	-0.32905	0.277216	1.3908	0.0394618	0	0	-1.15848	-0.0251204	0.0286705	1.50421	0.245587	-0.864492	0.863317	1.42917	0	0	1.5708	-0.213386	0.81432	0.826761	1.5708	0	0
20.31	1.59324	1.04546	1.04044	0.722169	-0.435806	0.758381	1.15575	-0.22573	-0.459352	1.18224	-0.254191	0	0	1.31611	-0.327457	0.347694	1.36569	0.0179925	0	0	-1.18919	0.0429156	0.0902006	1.47081	0.163606	-0.669859	0.851686	1.5708	0	0	1.56251	-0.205656	0.777028	0.849981	1.5708	0	0
20.32	1.45975	1.08359	1.13976	0.728725	-0.435692	0.755329	1.23833	-0.211818	-0.322052	1.2483	-0.25144	0	0	1.28577	-0.316287	0.268144	1.37155	0.0229715	0	0	-1.16498	-0.0235088	0.034989	1.45734	0.154552	-0.666286	0.855999	1.5708	0	0	1.55154	-0.203768	0.804482	0.854116	1.5708	0	0
20.33	1.46743	1.08652	1.13652	0.729164	-0.437462	0.758848	1.22849	-0.207547	-0.316718	1.23377	-0.25522	0	0	1.27785	-0.315838	0.264472	1.35817	0.0158712	0	0	-1.16221	-0.0266166	0.0441495	1.459	0.138779	-0.642761	0.861961	1.5708	0	0	1.53599	-0.198259	0.801295	0.867155	1.5708	0	0
20.34	1.47652	1.09443	1.13532	0.729065	-0.439258	0.762211	1.21444	-0.20904	-0.313771	1.22481	-0.257816	0	0	1.26497	-0.312183	0.259379	1.34673	0.00857527	0	0	-1.16254	-0.0277602	0.050466	1.45809	0.116027	-0.604469	0.862543	1.5708	0	0	1.51969	-0.193191	0.799585	0.879024	1.5708	0	0
20.35	1.48561	1.10668	1.1369	0.728496	-0.441048	0.765302	1.19713	-0.214476	-0.310361	1.22056	-0.255497	0	0	1.24786	-0.305334	0.252803	1.33776	0.00351407	0	0	-1.16502	-0.0273545	0.0538868	1.45636	0.0925082	-0.567837	0.856983	1.5708	0	0	1.50235	-0.189096	0.799092	0.890635	1.5708	0	0
20.36	1.64453	1.08094	1.01916	0.722867	-0.44454	0.775454	1.12099	-0.200881	-0.437479	1.15857	-0.276731	0	0	1.25281	-0.320938	0.321281	1.30831	-0.015264	0	0	-1.18713	0.0303965	0.12345	1.47169	0.058677	-0.50455	0.845972	1.5708	0	0	1.48169	-0.180134	0.76887	0.909023	1.5708	0	0
20.37	1.6608	1.08808	1.01001	0.722617	-0.446034	0.779254	1.10371	-0.198846	-0.43746	1.14634	-0.28119	0	0	1.23847	-0.321289	0.316812	1.29596	-0.0214642	0	0	-1.18816	0.0290221	0.132972	1.47177	0.039927	-0.48088	0.833559	1.5708	0	0	1.46744	-0.175589	0.771949	0.918748	1.5708	0	0
20.38	1.66741	1.09425	1.00966	0.722578	-0.447761	0.782487	1.09373	-0.19773	-0.427349	1.13964	-0.282958	0	0	1.22672	-0.31868	0.310145	1.28451	-0.0283928	0	0	-1.18378	0.0265165	0.137466	1.47732	0.0155173	-0.445152	0.813893	1.5708	0	0	1.45228	-0.172924	0.776887	0.926959	1.5708	0	0
